# xmcd
#
# Track frame offsets: 
#        150
#        19906
#        38507
#        56069
#        76307
#        95798
#        119334
#        138943
#        158968
#        179570
#        201497
#        221331
#        238136
#        256729
#        276073
#        295388
#        314026
#        329255
#
# Disc length: 4631 seconds
#
# Revision: 0
# Processed by: cddbd v1.5.2PL0 Copyright (c) Steve Scherf et al.
# Submitted via: ExactAudioCopy v0.99pb5
#
DISCID=13121512
DTITLE=Фристайл - Лучшие песни
DYEAR=2008
DGENRE=Pop
TTITLE0=Прощай навеки, последняя любовь 
TTITLE1=Бог тебя накажет
TTITLE2=Метелица 
TTITLE3=Я тебе не верю
TTITLE4=Белая акация 
TTITLE5=Ах, какая женщина 
TTITLE6=Желтые розы 
TTITLE7=Не забудь
TTITLE8=Больно, мне больно 
TTITLE9=Скатерью дорога
TTITLE10=Измученное сердце
TTITLE11=Черёмуха
TTITLE12=Милая,нежная
TTITLE13=Не обещай
TTITLE14=Фонари
TTITLE15=Букет бумажных роз 
TTITLE16=Марина
TTITLE17=Целуй меня горячее
EXTD=
EXTT0=
EXTT1=
EXTT2=
EXTT3=
EXTT4=
EXTT5=
EXTT6=
EXTT7=
EXTT8=
EXTT9=
EXTT10=
EXTT11=
EXTT12=
EXTT13=
EXTT14=
EXTT15=
EXTT16=
EXTT17=
PLAYORDER=
